<svg xmlns="http://www.w3.org/2000/svg" viewBox="0 0 114 114"><defs><style>.cls-1{fill:#97c5e8;}</style></defs><title>WhyChooseUs_icon1</title><g id="Layer_2" data-name="Layer 2"><g id="Layer_1-2" data-name="Layer 1"><path class="cls-1" d="M57,0a57,57,0,1,0,57,57A57.06,57.06,0,0,0,57,0Zm0,109a52,52,0,1,1,52-52A52,52,0,0,1,57,109Z"/><path class="cls-1" d="M101,43.71a45.81,45.81,0,0,0-8.75-16.22s-.1-.09-.14-.14L92,27.22a.1.1,0,0,0,0,0L91.7,27l-.19-.13-.22-.09-.24-.1-.2-.05-.28,0h-.2a1.31,1.31,0,0,0-.28,0,1.38,1.38,0,0,0-.2,0,2.61,2.61,0,0,0-.27.06.8.8,0,0,0-.2.07,1.83,1.83,0,0,0-.26.11L89,27a1.88,1.88,0,0,0-.23.16l-.06,0a1.79,1.79,0,0,0-.13.14.86.86,0,0,0-.14.13L77.24,40.1l-4.56-.94L71.2,34.73l4.07-4.57a2.51,2.51,0,0,0-3.76-3.34l-5,5.66A2.51,2.51,0,0,0,66,34.94l1.93,5.8-10.85,12L44.44,40.19a2.51,2.51,0,0,0-.72-1.58L39,33.89a2.53,2.53,0,0,0-3.68.13l-.79.92a2.51,2.51,0,0,0,.13,3.43l4.74,4.72a2.55,2.55,0,0,0,1.56.71L53.67,56.45,44.8,66.24l-5.07-1a2.53,2.53,0,0,0-2.39.79L33,70.89a2.5,2.5,0,0,0-.5,2.47l2.06,6.21a2.51,2.51,0,0,0,1.88,1.67l6.42,1.32a2.92,2.92,0,0,0,.5,0,2.54,2.54,0,0,0,1.89-.84l4.34-4.9a2.52,2.52,0,0,0,.51-2.47l-1.58-4.75L57.24,60l5.63,5.6A2.5,2.5,0,0,0,63,69L76.35,82.51a2.51,2.51,0,0,0,1.79.75h.08A2.51,2.51,0,0,0,80,82.39l2.81-3.23a2.51,2.51,0,0,0-.11-3.41L69.41,62.2a2.51,2.51,0,0,0-3.17-.34l-5.62-5.59,11-12.18,6,1.23a2.18,2.18,0,0,0,.5,0,2.5,2.5,0,0,0,1.89-.85L90.18,33.05a40.89,40.89,0,1,1-8.4-8.62,2.52,2.52,0,1,0,3-4A46,46,0,1,0,70.29,101,46,46,0,0,0,101,43.71ZM42.44,77.34l-3.57-.74-1.15-3.45,2.42-2.73,3.57.74,1.15,3.45Z"/></g></g></svg>